<svg width="512" height="512" viewBox="0 0 512 512" fill="none" xmlns="http://www.w3.org/2000/svg">
<rect width="512" height="512" rx="76" fill="#E3F2E7"/>
<path d="M125.234 443.08C122.114 443.08 119.341 442.387 116.914 441C114.488 439.96 113.274 438.4 113.274 436.32C113.274 431.12 117.608 427.653 126.274 425.92C139.448 423.147 148.808 419.333 154.354 414.48C159.901 409.627 162.674 401.48 162.674 390.04V161.24C162.674 148.067 160.421 138.36 155.914 132.12C151.754 125.88 143.434 121.373 130.954 118.6C126.101 117.56 122.634 116.173 120.554 114.44C118.474 112.36 117.434 110.28 117.434 108.2C117.434 105.773 118.474 104.04 120.554 103C122.981 101.613 126.101 100.92 129.914 100.92C138.234 100.92 145.861 101.093 152.794 101.44C160.074 101.44 167.008 101.613 173.594 101.96C180.181 102.307 186.941 102.48 193.874 102.48C201.501 102.48 208.608 102.133 215.194 101.44C222.128 100.747 229.061 100.053 235.994 99.3601C243.274 98.6667 251.594 98.3201 260.954 98.3201C302.208 98.3201 335.141 106.987 359.754 124.32C384.368 141.653 396.674 165.573 396.674 196.08C396.674 217.573 392.168 237.507 383.154 255.88C374.488 273.907 360.968 288.467 342.594 299.56C324.568 310.653 301.688 316.2 273.954 316.2C265.288 316.2 258.701 314.987 254.194 312.56C249.688 309.787 247.434 306.84 247.434 303.72C247.434 301.64 248.474 299.907 250.554 298.52C252.981 296.787 255.061 295.92 256.794 295.92C259.914 295.92 262.861 296.267 265.634 296.96C268.754 297.307 273.261 297.48 279.154 297.48C295.448 297.48 307.754 289.16 316.074 272.52C324.741 255.88 329.074 233.693 329.074 205.96C329.074 175.453 322.834 153.267 310.354 139.4C298.221 125.187 281.754 118.08 260.954 118.08C251.248 118.08 243.621 120.16 238.074 124.32C232.874 128.133 230.274 134.373 230.274 143.04L229.754 386.92C229.754 398.36 232.528 407.027 238.074 412.92C243.968 418.467 253.848 422.8 267.714 425.92C272.221 426.613 275.514 427.827 277.594 429.56C279.674 430.947 280.714 433.027 280.714 435.8C280.714 438.227 279.674 439.96 277.594 441C275.861 442.04 273.088 442.56 269.274 442.56C261.301 442.56 253.154 442.213 244.834 441.52C236.514 441.173 228.368 440.827 220.394 440.48C212.768 440.133 205.488 439.96 198.554 439.96C190.928 439.96 182.954 440.133 174.634 440.48C166.661 440.827 158.514 441.347 150.194 442.04C141.874 442.733 133.554 443.08 125.234 443.08Z" fill="black"/>
</svg>
